<?xml version="1.0" standalone="no"?>
<!DOCTYPE svg PUBLIC "-//W3C//DTD SVG 20010904//EN"
 "http://www.w3.org/TR/2001/REC-SVG-20010904/DTD/svg10.dtd">
<svg version="1.0" xmlns="http://www.w3.org/2000/svg"
 width="1024.000000pt" height="1024.000000pt" viewBox="0 0 1024.000000 1024.000000"
 preserveAspectRatio="xMidYMid meet">
<metadata>
Created by potrace 1.14, written by Peter Selinger 2001-2017
</metadata>
<g transform="translate(0.000000,1024.000000) scale(0.100000,-0.100000)"
fill="#000000" stroke="none">
<path d="M0 5120 l0 -3840 5120 0 5120 0 0 3840 0 3840 -5120 0 -5120 0 0
-3840z m5489 3034 c106 -31 167 -124 192 -294 23 -160 -4 -307 -73 -384 -76
-87 26 -81 -1265 -84 l-1143 -2 0 -2535 c0 -1786 -3 -2549 -11 -2585 -23 -107
-110 -194 -232 -232 -103 -32 -310 -32 -412 -1 -131 41 -208 114 -237 226 -11
43 -13 533 -13 2792 0 2631 1 2742 18 2800 57 185 155 275 330 304 29 5 669 9
1423 10 1217 1 1376 -1 1423 -15z m2151 -1424 c140 -22 218 -91 261 -230 20
-66 20 -99 32 -2076 7 -1105 9 -2035 6 -2066 -8 -71 -55 -172 -99 -215 -19
-18 -59 -43 -89 -55 -55 -22 -69 -22 -656 -29 -1020 -12 -1603 -11 -1648 3
-87 26 -142 124 -153 271 -12 151 33 258 125 301 46 21 54 21 931 26 l885 5
-2 355 c-1 195 -5 975 -9 1732 l-6 1377 -952 -2 -952 -2 -41 27 c-28 19 -50
45 -70 85 -27 55 -28 65 -28 193 0 119 3 140 22 175 26 49 68 89 108 106 23 9
266 14 990 19 528 3 1032 7 1120 8 88 1 189 -3 225 -8z m-2923 -878 c161 -51
310 -176 381 -323 54 -108 72 -183 72 -289 0 -181 -58 -321 -184 -445 -87 -86
-174 -139 -281 -171 -83 -25 -267 -25 -350 0 -199 60 -363 216 -426 407 -21
64 -24 93 -24 209 0 116 3 145 24 209 72 218 275 389 506 425 61 9 221 -3 282
-22z m1604 -1072 c167 -32 319 -168 370 -331 21 -68 25 -205 8 -278 -29 -128
-141 -265 -261 -321 -280 -130 -617 23 -693 315 -31 119 -14 264 43 369 43 80
129 161 214 201 111 53 207 66 319 45z"/>
</g>
</svg>
