<?xml version="1.0" standalone="no"?>
<!DOCTYPE svg PUBLIC "-//W3C//DTD SVG 20010904//EN"
 "http://www.w3.org/TR/2001/REC-SVG-20010904/DTD/svg10.dtd">
<svg version="1.0" xmlns="http://www.w3.org/2000/svg"
 width="512.000000pt" height="512.000000pt" viewBox="0 0 512.000000 512.000000"
 preserveAspectRatio="xMidYMid meet">
<metadata>
Created by potrace 1.14, written by Peter Selinger 2001-2017
</metadata>
<g transform="translate(0.000000,512.000000) scale(0.100000,-0.100000)"
fill="#000000" stroke="none">
<path d="M303 5036 c-99 -31 -169 -92 -221 -189 l-27 -52 0 -2235 0 -2235 34
-63 c38 -71 98 -128 169 -164 l47 -23 2260 0 2260 0 47 23 c71 36 131 93 169
164 l34 63 0 2235 0 2235 -34 63 c-41 75 -94 125 -170 161 l-56 26 -2235 2
c-1829 1 -2243 -1 -2277 -11z m2436 -1119 c49 -25 65 -60 69 -154 3 -80 2 -91
-20 -123 -14 -20 -38 -40 -58 -47 -25 -9 -175 -12 -537 -12 l-503 -1 -2 -1164
c-3 -1159 -3 -1165 -24 -1193 -33 -46 -88 -67 -174 -67 -90 0 -143 22 -177 73
l-23 34 0 1250 c0 911 3 1260 11 1288 16 53 57 97 104 114 55 19 1297 22 1334
2z m1007 -653 c21 -10 40 -30 53 -57 19 -41 20 -75 27 -972 7 -924 7 -931 -14
-977 -36 -81 -15 -78 -587 -85 -468 -6 -506 -5 -530 11 -49 32 -69 122 -44
195 21 60 26 61 470 61 l402 0 -6 508 c-4 279 -7 632 -7 785 l0 277 -431 0
-431 0 -29 29 c-27 27 -29 35 -29 104 0 82 19 122 63 130 12 2 255 5 540 6
456 1 523 -1 553 -15z m-1328 -400 c140 -69 198 -232 134 -376 -59 -133 -244
-202 -375 -139 -96 47 -167 157 -167 261 0 103 70 212 165 256 72 34 172 33
243 -2z m758 -499 c63 -40 97 -104 97 -183 0 -183 -201 -281 -351 -172 -99 71
-110 232 -24 324 69 73 187 86 278 31z"/>
</g>
</svg>
